<?xml version="1.0" encoding="utf-8"?>
<!-- Generator: Adobe Illustrator 19.1.0, SVG Export Plug-In . SVG Version: 6.00 Build 0)  -->
<svg version="1.1" id="Layer_1" xmlns="http://www.w3.org/2000/svg" xmlns:xlink="http://www.w3.org/1999/xlink" x="0px" y="0px"
	 viewBox="-255 334 100 125" style="enable-background:new -255 334 100 125;" xml:space="preserve">
<path d="M-173.6,347c-10.6-11.6-29.6-7.1-35.5-3.6c-6.1,3.6-17.5,10.4-22.4,30.9c-2.5,10.2,0.9,24,3.4,31.3c1.8,5.2,7,16,6.3,24.3
	l0,0.2c0.4-1.5,0.6-2.7,0.9-4.6c1.1-8.7,4.4-31.9,26.7-39.1c20.2-6.4,24.5-15.9,25.6-22.9C-167.7,357.9-169.1,351.9-173.6,347z
	 M-175.6,351.1c0.5-0.9,1.8-1,2.1,0.1c0.3,1-1.1,2.9-2.1,1.8C-176.1,352.4-175.9,351.7-175.6,351.1z M-198.4,360.2
	c-0.7-1,0.3-2.1,1.4-1.9c0.7,0.1,1.5,0.5,1.7,1.3C-195,361.2-197.7,361.2-198.4,360.2z M-178.5,372.1c-3.6,2-13.6,4.9-15.8,0.4
	c-1.1-2.3,0.9-4.5,3.2-5.5c3.1-1.2,10.4-1.9,15.5-7.2c1.6-1.7,3.4-1.5,4.3-0.5C-169.5,361.1-170.2,367.5-178.5,372.1z"/>
</svg>
